G04 #@! TF.GenerationSoftware,KiCad,Pcbnew,(5.0.2)-1*
G04 #@! TF.CreationDate,2019-04-16T09:03:41+02:00*
G04 #@! TF.ProjectId,V2,56322e6b-6963-4616-945f-706362585858,rev?*
G04 #@! TF.SameCoordinates,Original*
G04 #@! TF.FileFunction,Copper,L2,Bot*
G04 #@! TF.FilePolarity,Positive*
%FSLAX46Y46*%
G04 Gerber Fmt 4.6, Leading zero omitted, Abs format (unit mm)*
G04 Created by KiCad (PCBNEW (5.0.2)-1) date 16/04/2019 9:03:41*
%MOMM*%
%LPD*%
G01*
G04 APERTURE LIST*
G04 #@! TA.AperFunction,ComponentPad*
%ADD10O,1.800000X2.199640*%
G04 #@! TD*
G04 #@! TA.AperFunction,ComponentPad*
%ADD11C,1.600000*%
G04 #@! TD*
G04 #@! TA.AperFunction,ComponentPad*
%ADD12C,2.000000*%
G04 #@! TD*
G04 #@! TA.AperFunction,ComponentPad*
%ADD13R,2.032000X1.727200*%
G04 #@! TD*
G04 #@! TA.AperFunction,ComponentPad*
%ADD14O,2.032000X1.727200*%
G04 #@! TD*
G04 #@! TA.AperFunction,ViaPad*
%ADD15C,1.000000*%
G04 #@! TD*
G04 #@! TA.AperFunction,Conductor*
%ADD16C,1.000000*%
G04 #@! TD*
G04 #@! TA.AperFunction,Conductor*
%ADD17C,0.250000*%
G04 #@! TD*
G04 APERTURE END LIST*
D10*
G04 #@! TO.P,ARDUINO,12*
G04 #@! TO.N,RX_XBEE*
X130302000Y-94132400D03*
G04 #@! TO.P,ARDUINO,11*
G04 #@! TO.N,RX_ARDUINO*
X132842000Y-94132400D03*
G04 #@! TO.P,ARDUINO,10*
G04 #@! TO.N,Net-(U2-Pad10)*
X135382000Y-94132400D03*
G04 #@! TO.P,ARDUINO,9*
G04 #@! TO.N,Net-(U2-Pad9)*
X137922000Y-94132400D03*
G04 #@! TO.P,ARDUINO,8*
G04 #@! TO.N,Net-(U2-Pad8)*
X140462000Y-94132400D03*
G04 #@! TO.P,ARDUINO,7*
G04 #@! TO.N,Net-(U2-Pad7)*
X143002000Y-94132400D03*
G04 #@! TO.P,ARDUINO,6*
G04 #@! TO.N,Net-(U2-Pad6)*
X145542000Y-94132400D03*
G04 #@! TO.P,ARDUINO,5*
G04 #@! TO.N,SENS_DATA*
X148082000Y-94132400D03*
G04 #@! TO.P,ARDUINO,4*
G04 #@! TO.N,Net-(U2-Pad4)*
X150622000Y-94132400D03*
G04 #@! TO.P,ARDUINO,3*
G04 #@! TO.N,Net-(U2-Pad3)*
X153162000Y-94132400D03*
G04 #@! TO.P,ARDUINO,2*
G04 #@! TO.N,Net-(U2-Pad2)*
X155702000Y-94132400D03*
G04 #@! TO.P,ARDUINO,1*
G04 #@! TO.N,Net-(U2-Pad1)*
X158242000Y-94132400D03*
G04 #@! TO.P,ARDUINO,24*
G04 #@! TO.N,Net-(U2-Pad24)*
X158242000Y-78892400D03*
G04 #@! TO.P,ARDUINO,23*
G04 #@! TO.N,Net-(U2-Pad23)*
X155702000Y-78892400D03*
G04 #@! TO.P,ARDUINO,22*
G04 #@! TO.N,Net-(U2-Pad22)*
X153162000Y-78892400D03*
G04 #@! TO.P,ARDUINO,21*
G04 #@! TO.N,Net-(U2-Pad21)*
X150622000Y-78892400D03*
G04 #@! TO.P,ARDUINO,20*
G04 #@! TO.N,Net-(U2-Pad20)*
X148082000Y-78892400D03*
G04 #@! TO.P,ARDUINO,19*
G04 #@! TO.N,Net-(U2-Pad19)*
X145542000Y-78892400D03*
G04 #@! TO.P,ARDUINO,18*
G04 #@! TO.N,Net-(U2-Pad18)*
X143002000Y-78892400D03*
G04 #@! TO.P,ARDUINO,17*
G04 #@! TO.N,Net-(U2-Pad17)*
X140462000Y-78892400D03*
G04 #@! TO.P,ARDUINO,16*
G04 #@! TO.N,3.7V_OUT-T*
X137922000Y-78892400D03*
G04 #@! TO.P,ARDUINO,15*
G04 #@! TO.N,Net-(U2-Pad15)*
X135382000Y-78892400D03*
G04 #@! TO.P,ARDUINO,14*
G04 #@! TO.N,GND*
X132842000Y-78892400D03*
G04 #@! TO.P,ARDUINO,13*
G04 #@! TO.N,Net-(U2-Pad13)*
X130302000Y-78892400D03*
G04 #@! TO.P,ARDUINO,25*
G04 #@! TO.N,Net-(U2-Pad25)*
X141732000Y-81432400D03*
G04 #@! TO.P,ARDUINO,26*
G04 #@! TO.N,Net-(U2-Pad26)*
X139192000Y-81432400D03*
G04 #@! TD*
D11*
G04 #@! TO.P,XBEE,1*
G04 #@! TO.N,3.7V*
X135890000Y-46228000D03*
G04 #@! TO.P,XBEE,2*
G04 #@! TO.N,TX_XBEE*
X135890000Y-48228000D03*
G04 #@! TO.P,XBEE,3*
G04 #@! TO.N,RX_XBEE*
X135890000Y-50228000D03*
G04 #@! TO.P,XBEE,4*
G04 #@! TO.N,GND*
X135890000Y-64228000D03*
G04 #@! TO.P,XBEE,5*
G04 #@! TO.N,Net-(U4-Pad5)*
X157890000Y-46228000D03*
G04 #@! TO.P,XBEE,6*
G04 #@! TO.N,Net-(U4-Pad6)*
X157890000Y-48228000D03*
G04 #@! TO.P,XBEE,7*
G04 #@! TO.N,Net-(U4-Pad7)*
X157890000Y-50228000D03*
G04 #@! TO.P,XBEE,8*
G04 #@! TO.N,PINOUT_TRANSISTOR*
X157890000Y-60228000D03*
G04 #@! TO.P,XBEE,9*
G04 #@! TO.N,Net-(U4-Pad9)*
X157890000Y-64228000D03*
G04 #@! TD*
D12*
G04 #@! TO.P,BATERIA,1*
G04 #@! TO.N,3.7V*
X113893600Y-43281600D03*
G04 #@! TO.P,BATERIA,2*
G04 #@! TO.N,GND*
X116433600Y-43281600D03*
G04 #@! TO.P,BATERIA,3*
G04 #@! TO.N,3.7V*
X118973600Y-43281600D03*
G04 #@! TO.P,BATERIA,4*
G04 #@! TO.N,GND*
X121513600Y-43281600D03*
G04 #@! TO.P,BATERIA,5*
X124053600Y-43281600D03*
G04 #@! TO.P,BATERIA,6*
G04 #@! TO.N,3.7V*
X126593600Y-43281600D03*
G04 #@! TO.P,BATERIA,7*
G04 #@! TO.N,GND*
X129133600Y-43281600D03*
G04 #@! TO.P,BATERIA,8*
G04 #@! TO.N,3.7V*
X131673600Y-43281600D03*
G04 #@! TD*
G04 #@! TO.P,2N,3*
G04 #@! TO.N,3.7V_OUT-T*
X123139200Y-66141600D03*
G04 #@! TO.P,2N,2*
G04 #@! TO.N,Net-(U10-Pad2)*
X120599200Y-66141600D03*
G04 #@! TO.P,2N,1*
G04 #@! TO.N,3.7V*
X118059200Y-66141600D03*
G04 #@! TD*
D13*
G04 #@! TO.P,DHT,1*
G04 #@! TO.N,3.7V*
X119075200Y-83159600D03*
D14*
G04 #@! TO.P,DHT,2*
G04 #@! TO.N,SENS_DATA*
X119075200Y-85699600D03*
G04 #@! TO.P,DHT,3*
G04 #@! TO.N,Net-(TH1-Pad3)*
X119075200Y-88239600D03*
G04 #@! TO.P,DHT,4*
G04 #@! TO.N,GND*
X119075200Y-90779600D03*
G04 #@! TD*
D12*
G04 #@! TO.P,R100,1*
G04 #@! TO.N,Net-(U10-Pad2)*
X128270000Y-66090800D03*
G04 #@! TO.P,R100,2*
G04 #@! TO.N,Salida_2T*
X130810000Y-66090800D03*
G04 #@! TD*
G04 #@! TO.P,R1,1*
G04 #@! TO.N,Net-(U7-Pad1)*
X128320800Y-75488800D03*
G04 #@! TO.P,R1,2*
G04 #@! TO.N,Salida_2T*
X130860800Y-75488800D03*
G04 #@! TD*
G04 #@! TO.P,R100,2*
G04 #@! TO.N,PINOUT_TRANSISTOR*
X129981600Y-57099200D03*
G04 #@! TO.P,R100,1*
G04 #@! TO.N,Net-(U5-Pad1)*
X127441600Y-57099200D03*
G04 #@! TD*
G04 #@! TO.P, R10K,1*
G04 #@! TO.N,3.7V*
X124714000Y-82956400D03*
G04 #@! TO.P, R10K,2*
G04 #@! TO.N,SENS_DATA*
X124714000Y-85496400D03*
G04 #@! TD*
G04 #@! TO.P,BC,1*
G04 #@! TO.N,Salida_2T*
X117856000Y-56946800D03*
G04 #@! TO.P,BC,2*
G04 #@! TO.N,Net-(U5-Pad1)*
X120396000Y-56946800D03*
G04 #@! TO.P,BC,3*
G04 #@! TO.N,GND*
X122936000Y-56946800D03*
G04 #@! TD*
G04 #@! TO.P,2N,1*
G04 #@! TO.N,TX_XBEE*
X123139200Y-75488800D03*
G04 #@! TO.P,2N,2*
G04 #@! TO.N,Net-(U7-Pad1)*
X120599200Y-75488800D03*
G04 #@! TO.P,2N,3*
G04 #@! TO.N,RX_ARDUINO*
X118059200Y-75488800D03*
G04 #@! TD*
D15*
G04 #@! TO.N,GND*
X130911600Y-89281000D03*
G04 #@! TO.N,TX_XBEE*
X121641600Y-61016000D03*
G04 #@! TO.N,RX_XBEE*
X153136600Y-85471000D03*
G04 #@! TD*
D16*
G04 #@! TO.N,GND*
X132842000Y-78692580D02*
X132842000Y-78892400D01*
X135890000Y-64228000D02*
X131893600Y-64228000D01*
X132842000Y-78892400D02*
X132842000Y-87350600D01*
X132842000Y-87350600D02*
X130911600Y-89281000D01*
X130911600Y-89281000D02*
X130911600Y-89281000D01*
X121513600Y-45974000D02*
X121513600Y-43281600D01*
X120751600Y-46736000D02*
X121513600Y-45974000D01*
X116941600Y-46736000D02*
X120751600Y-46736000D01*
X116433600Y-43281600D02*
X116433600Y-46228000D01*
X116433600Y-46228000D02*
X116941600Y-46736000D01*
X121513600Y-43281600D02*
X124053600Y-43281600D01*
X129133600Y-43281600D02*
X129133600Y-45974000D01*
X129133600Y-45974000D02*
X128371600Y-46736000D01*
X128371600Y-46736000D02*
X124561600Y-46736000D01*
X124053600Y-46228000D02*
X124053600Y-43281600D01*
X124561600Y-46736000D02*
X124053600Y-46228000D01*
X122936000Y-48361600D02*
X124561600Y-46736000D01*
X122936000Y-56946800D02*
X122936000Y-48361600D01*
X122936000Y-56946800D02*
X122936000Y-58650400D01*
X122936000Y-58650400D02*
X124541600Y-60256000D01*
X127921600Y-60256000D02*
X131893600Y-64228000D01*
X124541600Y-60256000D02*
X127921600Y-60256000D01*
X132842000Y-78892400D02*
X132842000Y-67315600D01*
X132842000Y-67315600D02*
X133501600Y-66656000D01*
X133501600Y-66656000D02*
X135831600Y-66656000D01*
X135890000Y-66597600D02*
X135890000Y-64228000D01*
X135831600Y-66656000D02*
X135890000Y-66597600D01*
G04 #@! TO.N,TX_XBEE*
X123139200Y-75488800D02*
X123139200Y-74074587D01*
X121600613Y-72536000D02*
X118531600Y-72536000D01*
X123139200Y-74074587D02*
X121600613Y-72536000D01*
X118531600Y-72536000D02*
X113911600Y-67916000D01*
X113911600Y-67916000D02*
X113911600Y-64716000D01*
X113911600Y-64716000D02*
X117611600Y-61016000D01*
X117611600Y-61016000D02*
X121641600Y-61016000D01*
X121641600Y-61016000D02*
X121641600Y-61016000D01*
D17*
G04 #@! TO.N,RX_XBEE*
X130302000Y-93932580D02*
X130302000Y-94132400D01*
D16*
X153136600Y-85471000D02*
X153136600Y-85471000D01*
X130302000Y-92916400D02*
X132792400Y-90426000D01*
X130302000Y-94132400D02*
X130302000Y-92916400D01*
X148181600Y-90426000D02*
X153136600Y-85471000D01*
X132792400Y-90426000D02*
X148181600Y-90426000D01*
G04 #@! TO.N,PINOUT_TRANSISTOR*
X157890000Y-60228000D02*
X133110400Y-60228000D01*
X131696187Y-60228000D02*
X133110400Y-60228000D01*
X129981600Y-58513413D02*
X131696187Y-60228000D01*
X129981600Y-57099200D02*
X129981600Y-58513413D01*
G04 #@! TO.N,Net-(U7-Pad1)*
X128320800Y-76903013D02*
X128320800Y-75488800D01*
X127027813Y-78196000D02*
X128320800Y-76903013D01*
X121892187Y-78196000D02*
X127027813Y-78196000D01*
X120599200Y-76903013D02*
X121892187Y-78196000D01*
X120599200Y-75488800D02*
X120599200Y-76903013D01*
G04 #@! TO.N,RX_ARDUINO*
X132842000Y-94332220D02*
X132842000Y-94132400D01*
X118059200Y-76903013D02*
X118059200Y-75488800D01*
X128701990Y-81336390D02*
X127121600Y-79756000D01*
X128701990Y-86445610D02*
X128701990Y-81336390D01*
X132842000Y-96232220D02*
X132681600Y-96392620D01*
X127121600Y-79756000D02*
X120912187Y-79756000D01*
X132842000Y-94132400D02*
X132842000Y-96232220D01*
X132681600Y-96392620D02*
X126518220Y-96392620D01*
X120912187Y-79756000D02*
X118059200Y-76903013D01*
X126518220Y-96392620D02*
X125131600Y-95006000D01*
X125131600Y-95006000D02*
X125131600Y-90016000D01*
X125131600Y-90016000D02*
X128701990Y-86445610D01*
G04 #@! TO.N,Net-(U10-Pad2)*
X128270000Y-63688128D02*
X128270000Y-66090800D01*
X126737862Y-62155990D02*
X128270000Y-63688128D01*
X123170597Y-62155990D02*
X126737862Y-62155990D01*
X120599200Y-64727387D02*
X123170597Y-62155990D01*
X120599200Y-66141600D02*
X120599200Y-64727387D01*
G04 #@! TO.N,Salida_2T*
X130810000Y-75438000D02*
X130860800Y-75488800D01*
X130810000Y-66090800D02*
X130810000Y-75438000D01*
G04 #@! TD*
M02*
