M48
;DRILL file {KiCad (5.0.2)-1} date 16/04/2019 9:03:37
;FORMAT={-:-/ absolute / metric / decimal}
FMAT,2
METRIC,TZ
T1C0.800
T2C1.016
T3C1.200
%
G90
G05
T1
X121.642Y-61.016
X130.912Y-89.281
X153.137Y-85.471
T2
X119.075Y-83.16
X119.075Y-85.7
X119.075Y-88.24
X119.075Y-90.78
T3
X128.321Y-75.489
X130.861Y-75.489
X113.894Y-43.282
X116.434Y-43.282
X118.974Y-43.282
X121.514Y-43.282
X124.054Y-43.282
X126.594Y-43.282
X129.134Y-43.282
X131.674Y-43.282
X124.714Y-82.956
X124.714Y-85.496
X130.302Y-78.892
X130.302Y-94.132
X132.842Y-78.892
X132.842Y-94.132
X135.382Y-78.892
X135.382Y-94.132
X137.922Y-78.892
X137.922Y-94.132
X139.192Y-81.432
X140.462Y-78.892
X140.462Y-94.132
X141.732Y-81.432
X143.002Y-78.892
X143.002Y-94.132
X145.542Y-78.892
X145.542Y-94.132
X148.082Y-78.892
X148.082Y-94.132
X150.622Y-78.892
X150.622Y-94.132
X153.162Y-78.892
X153.162Y-94.132
X155.702Y-78.892
X155.702Y-94.132
X158.242Y-78.892
X158.242Y-94.132
X118.059Y-75.489
X120.599Y-75.489
X123.139Y-75.489
X128.27Y-66.091
X130.81Y-66.091
X118.059Y-66.142
X120.599Y-66.142
X123.139Y-66.142
X127.442Y-57.099
X129.982Y-57.099
X135.89Y-46.228
X135.89Y-48.228
X135.89Y-50.228
X135.89Y-64.228
X157.89Y-46.228
X157.89Y-48.228
X157.89Y-50.228
X157.89Y-60.228
X157.89Y-64.228
X117.856Y-56.947
X120.396Y-56.947
X122.936Y-56.947
T0
M30
