G04 #@! TF.GenerationSoftware,KiCad,Pcbnew,(5.0.2)-1*
G04 #@! TF.CreationDate,2019-05-13T13:57:21+02:00*
G04 #@! TF.ProjectId,placa buena lineas rectas,706c6163-6120-4627-9565-6e61206c696e,rev?*
G04 #@! TF.SameCoordinates,Original*
G04 #@! TF.FileFunction,Copper,L1,Top*
G04 #@! TF.FilePolarity,Positive*
%FSLAX46Y46*%
G04 Gerber Fmt 4.6, Leading zero omitted, Abs format (unit mm)*
G04 Created by KiCad (PCBNEW (5.0.2)-1) date 13/05/2019 13:57:21*
%MOMM*%
%LPD*%
G01*
G04 APERTURE LIST*
G04 #@! TA.AperFunction,ComponentPad*
%ADD10C,1.600000*%
G04 #@! TD*
G04 #@! TA.AperFunction,ComponentPad*
%ADD11O,1.800000X2.199640*%
G04 #@! TD*
G04 #@! TA.AperFunction,ComponentPad*
%ADD12C,2.000000*%
G04 #@! TD*
G04 #@! TA.AperFunction,ComponentPad*
%ADD13R,2.032000X1.727200*%
G04 #@! TD*
G04 #@! TA.AperFunction,ComponentPad*
%ADD14O,2.032000X1.727200*%
G04 #@! TD*
G04 #@! TA.AperFunction,ViaPad*
%ADD15C,1.000000*%
G04 #@! TD*
G04 #@! TA.AperFunction,Conductor*
%ADD16C,1.000000*%
G04 #@! TD*
G04 APERTURE END LIST*
D10*
G04 #@! TO.P,,1*
G04 #@! TO.N,3.7V*
X136499600Y-46482000D03*
G04 #@! TO.P,,2*
G04 #@! TO.N,TX_XBEE*
X136499600Y-48482000D03*
G04 #@! TO.P,,3*
G04 #@! TO.N,RX_XBEE*
X136499600Y-50482000D03*
G04 #@! TO.P,,4*
G04 #@! TO.N,GND*
X136499600Y-64482000D03*
G04 #@! TO.P,,5*
G04 #@! TO.N,Net-(U4-Pad5)*
X158499600Y-46482000D03*
G04 #@! TO.P,,6*
G04 #@! TO.N,Net-(U4-Pad6)*
X158499600Y-48482000D03*
G04 #@! TO.P,,7*
G04 #@! TO.N,Net-(U4-Pad7)*
X158499600Y-50482000D03*
G04 #@! TO.P,,8*
G04 #@! TO.N,PINOUT_TRANSISTOR*
X158499600Y-60482000D03*
G04 #@! TO.P,,9*
G04 #@! TO.N,Net-(U4-Pad9)*
X158499600Y-64482000D03*
G04 #@! TD*
D11*
G04 #@! TO.P,U2,12*
G04 #@! TO.N,Net-(U2-Pad12)*
X129641600Y-93472000D03*
G04 #@! TO.P,U2,11*
G04 #@! TO.N,Net-(U2-Pad11)*
X132181600Y-93472000D03*
G04 #@! TO.P,U2,10*
G04 #@! TO.N,Net-(U2-Pad10)*
X134721600Y-93472000D03*
G04 #@! TO.P,U2,9*
G04 #@! TO.N,Net-(U2-Pad9)*
X137261600Y-93472000D03*
G04 #@! TO.P,U2,8*
G04 #@! TO.N,RX_ARDUINO*
X139801600Y-93472000D03*
G04 #@! TO.P,U2,7*
G04 #@! TO.N,RX_XBEE*
X142341600Y-93472000D03*
G04 #@! TO.P,U2,6*
G04 #@! TO.N,Net-(U2-Pad6)*
X144881600Y-93472000D03*
G04 #@! TO.P,U2,5*
G04 #@! TO.N,SENS_DATA*
X147421600Y-93472000D03*
G04 #@! TO.P,U2,4*
G04 #@! TO.N,Net-(U2-Pad4)*
X149961600Y-93472000D03*
G04 #@! TO.P,U2,3*
G04 #@! TO.N,Net-(U2-Pad3)*
X152501600Y-93472000D03*
G04 #@! TO.P,U2,2*
G04 #@! TO.N,Net-(U2-Pad2)*
X155041600Y-93472000D03*
G04 #@! TO.P,U2,1*
G04 #@! TO.N,Net-(U2-Pad1)*
X157581600Y-93472000D03*
G04 #@! TO.P,U2,24*
G04 #@! TO.N,Net-(U2-Pad24)*
X157581600Y-78232000D03*
G04 #@! TO.P,U2,23*
G04 #@! TO.N,Net-(U2-Pad23)*
X155041600Y-78232000D03*
G04 #@! TO.P,U2,22*
G04 #@! TO.N,Net-(U2-Pad22)*
X152501600Y-78232000D03*
G04 #@! TO.P,U2,21*
G04 #@! TO.N,Net-(U2-Pad21)*
X149961600Y-78232000D03*
G04 #@! TO.P,U2,20*
G04 #@! TO.N,Net-(U2-Pad20)*
X147421600Y-78232000D03*
G04 #@! TO.P,U2,19*
G04 #@! TO.N,Net-(U2-Pad19)*
X144881600Y-78232000D03*
G04 #@! TO.P,U2,18*
G04 #@! TO.N,Net-(U2-Pad18)*
X142341600Y-78232000D03*
G04 #@! TO.P,U2,17*
G04 #@! TO.N,Net-(U2-Pad17)*
X139801600Y-78232000D03*
G04 #@! TO.P,U2,16*
G04 #@! TO.N,3.7V_OUT-T*
X137261600Y-78232000D03*
G04 #@! TO.P,U2,15*
G04 #@! TO.N,Net-(U2-Pad15)*
X134721600Y-78232000D03*
G04 #@! TO.P,U2,14*
G04 #@! TO.N,GND*
X132181600Y-78232000D03*
G04 #@! TO.P,U2,13*
G04 #@! TO.N,Net-(U2-Pad13)*
X129641600Y-78232000D03*
G04 #@! TO.P,U2,25*
G04 #@! TO.N,Net-(U2-Pad25)*
X141071600Y-80772000D03*
G04 #@! TO.P,U2,26*
G04 #@! TO.N,Net-(U2-Pad26)*
X138531600Y-80772000D03*
G04 #@! TD*
D12*
G04 #@! TO.P,,1*
G04 #@! TO.N,3.7V*
X114655600Y-43434000D03*
G04 #@! TO.P,,2*
G04 #@! TO.N,GND*
X117195600Y-43434000D03*
G04 #@! TO.P,,3*
G04 #@! TO.N,3.7V*
X119735600Y-43434000D03*
G04 #@! TO.P,,4*
G04 #@! TO.N,GND*
X122275600Y-43434000D03*
G04 #@! TO.P,,5*
X124815600Y-43434000D03*
G04 #@! TO.P,,6*
G04 #@! TO.N,3.7V*
X127355600Y-43434000D03*
G04 #@! TO.P,,7*
G04 #@! TO.N,GND*
X129895600Y-43434000D03*
G04 #@! TO.P,,8*
G04 #@! TO.N,3.7V*
X132435600Y-43434000D03*
G04 #@! TD*
G04 #@! TO.P,,2*
G04 #@! TO.N,Salida_2T*
X130149600Y-61976000D03*
G04 #@! TO.P,,1*
G04 #@! TO.N,Net-(U10-Pad2)*
X127609600Y-61976000D03*
G04 #@! TD*
G04 #@! TO.P,,2*
G04 #@! TO.N,Salida_2T*
X130149600Y-71120000D03*
G04 #@! TO.P,,1*
G04 #@! TO.N,Net-(U7-Pad1)*
X127609600Y-71120000D03*
G04 #@! TD*
G04 #@! TO.P,,2*
G04 #@! TO.N,PINOUT_TRANSISTOR*
X130149600Y-52832000D03*
G04 #@! TO.P,,1*
G04 #@! TO.N,Net-(U5-Pad1)*
X127609600Y-52832000D03*
G04 #@! TD*
G04 #@! TO.P,,1*
G04 #@! TO.N,3.7V_OUT-T*
X123545600Y-82804000D03*
G04 #@! TO.P,,2*
G04 #@! TO.N,SENS_DATA*
X123545600Y-85344000D03*
G04 #@! TD*
G04 #@! TO.P,,1*
G04 #@! TO.N,Salida_2T*
X116433600Y-52832000D03*
G04 #@! TO.P,,2*
G04 #@! TO.N,Net-(U5-Pad1)*
X118973600Y-52832000D03*
G04 #@! TO.P,,3*
G04 #@! TO.N,GND*
X121513600Y-52832000D03*
G04 #@! TD*
G04 #@! TO.P,,3*
G04 #@! TO.N,3.7V_OUT-T*
X121513600Y-61976000D03*
G04 #@! TO.P,,2*
G04 #@! TO.N,Net-(U10-Pad2)*
X118973600Y-61976000D03*
G04 #@! TO.P,,1*
G04 #@! TO.N,3.7V*
X116433600Y-61976000D03*
G04 #@! TD*
G04 #@! TO.P,,1*
G04 #@! TO.N,TX_XBEE*
X116433600Y-71120000D03*
G04 #@! TO.P,,2*
G04 #@! TO.N,Net-(U7-Pad1)*
X118973600Y-71120000D03*
G04 #@! TO.P,,3*
G04 #@! TO.N,RX_ARDUINO*
X121513600Y-71120000D03*
G04 #@! TD*
D13*
G04 #@! TO.P,,1*
G04 #@! TO.N,3.7V_OUT-T*
X117957600Y-82550000D03*
D14*
G04 #@! TO.P,,2*
G04 #@! TO.N,SENS_DATA*
X117957600Y-85090000D03*
G04 #@! TO.P,,3*
G04 #@! TO.N,Net-(TH1-Pad3)*
X117957600Y-87630000D03*
G04 #@! TO.P,,4*
G04 #@! TO.N,GND*
X117957600Y-90170000D03*
G04 #@! TD*
D15*
G04 #@! TO.N,TX_XBEE*
X124561600Y-51816000D03*
G04 #@! TD*
D16*
G04 #@! TO.N,TX_XBEE*
X124561600Y-51816000D02*
X124561600Y-54864000D01*
X124561600Y-54864000D02*
X120497600Y-58928000D01*
X120497600Y-58928000D02*
X115417600Y-58928000D01*
X115417600Y-58928000D02*
X112369600Y-61976000D01*
X112369600Y-61976000D02*
X112369600Y-64516000D01*
X116433600Y-68580000D02*
X116433600Y-71120000D01*
X112369600Y-64516000D02*
X116433600Y-68580000D01*
G04 #@! TO.N,3.7V_OUT-T*
X121513600Y-61976000D02*
X121513600Y-65532000D01*
X121513600Y-65532000D02*
X123545600Y-67564000D01*
X123545600Y-67564000D02*
X123545600Y-82804000D01*
G04 #@! TO.N,Net-(U5-Pad1)*
X118973600Y-52832000D02*
X118973600Y-50292000D01*
X118973600Y-50292000D02*
X119989600Y-49276000D01*
X119989600Y-49276000D02*
X126085600Y-49276000D01*
X127609600Y-50800000D02*
X127609600Y-52832000D01*
X126085600Y-49276000D02*
X127609600Y-50800000D01*
G04 #@! TD*
M02*
