M48
;DRILL file {KiCad (5.0.2)-1} date 13/05/2019 13:57:26
;FORMAT={-:-/ absolute / metric / decimal}
FMAT,2
METRIC,TZ
T1C0.800
T2C1.016
T3C1.200
%
G90
G05
T1
X124.562Y-51.816
T2
X117.958Y-82.55
X117.958Y-85.09
X117.958Y-87.63
X117.958Y-90.17
T3
X114.656Y-43.434
X117.196Y-43.434
X119.736Y-43.434
X122.276Y-43.434
X124.816Y-43.434
X127.356Y-43.434
X129.896Y-43.434
X132.436Y-43.434
X116.434Y-71.12
X118.974Y-71.12
X121.514Y-71.12
X116.434Y-52.832
X118.974Y-52.832
X121.514Y-52.832
X127.61Y-52.832
X130.15Y-52.832
X127.61Y-61.976
X130.15Y-61.976
X136.5Y-46.482
X136.5Y-48.482
X136.5Y-50.482
X136.5Y-64.482
X158.5Y-46.482
X158.5Y-48.482
X158.5Y-50.482
X158.5Y-60.482
X158.5Y-64.482
X129.642Y-78.232
X129.642Y-93.472
X132.182Y-78.232
X132.182Y-93.472
X134.722Y-78.232
X134.722Y-93.472
X137.262Y-78.232
X137.262Y-93.472
X138.532Y-80.772
X139.802Y-78.232
X139.802Y-93.472
X141.072Y-80.772
X142.342Y-78.232
X142.342Y-93.472
X144.882Y-78.232
X144.882Y-93.472
X147.422Y-78.232
X147.422Y-93.472
X149.962Y-78.232
X149.962Y-93.472
X152.502Y-78.232
X152.502Y-93.472
X155.042Y-78.232
X155.042Y-93.472
X157.582Y-78.232
X157.582Y-93.472
X116.434Y-61.976
X118.974Y-61.976
X121.514Y-61.976
X123.546Y-82.804
X123.546Y-85.344
X127.61Y-71.12
X130.15Y-71.12
T0
M30
