G04 #@! TF.GenerationSoftware,KiCad,Pcbnew,(5.0.2)-1*
G04 #@! TF.CreationDate,2019-04-11T16:13:41+02:00*
G04 #@! TF.ProjectId,PCBPRUEBACNC,50434250-5255-4454-9241-434e432e6b69,rev?*
G04 #@! TF.SameCoordinates,Original*
G04 #@! TF.FileFunction,Copper,L1,Top*
G04 #@! TF.FilePolarity,Positive*
%FSLAX46Y46*%
G04 Gerber Fmt 4.6, Leading zero omitted, Abs format (unit mm)*
G04 Created by KiCad (PCBNEW (5.0.2)-1) date 11/04/2019 16:13:41*
%MOMM*%
%LPD*%
G01*
G04 APERTURE LIST*
G04 #@! TA.AperFunction,ComponentPad*
%ADD10C,2.000000*%
G04 #@! TD*
G04 #@! TA.AperFunction,Conductor*
%ADD11C,1.000000*%
G04 #@! TD*
G04 APERTURE END LIST*
D10*
G04 #@! TO.P,REF\002A\002A,3*
G04 #@! TO.N,N/C*
X122740000Y-67500000D03*
G04 #@! TO.P,REF\002A\002A,2*
X120200000Y-67500000D03*
G04 #@! TO.P,REF\002A\002A,1*
X117660000Y-67500000D03*
G04 #@! TD*
G04 #@! TO.P,REF\002A\002A,3*
G04 #@! TO.N,N/C*
X133020000Y-67420000D03*
G04 #@! TO.P,REF\002A\002A,2*
X130480000Y-67420000D03*
G04 #@! TO.P,REF\002A\002A,1*
X127940000Y-67420000D03*
G04 #@! TD*
G04 #@! TO.P,REF\002A\002A,3*
G04 #@! TO.N,N/C*
X113370000Y-67540000D03*
G04 #@! TO.P,REF\002A\002A,2*
X110830000Y-67540000D03*
G04 #@! TO.P,REF\002A\002A,1*
X108290000Y-67540000D03*
G04 #@! TD*
D11*
G04 #@! TO.N,*
X108290000Y-67540000D02*
X108290000Y-59420000D01*
X108290000Y-59420000D02*
X109610000Y-58100000D01*
X109610000Y-58100000D02*
X131990000Y-58100000D01*
X133020000Y-59130000D02*
X133020000Y-67420000D01*
X131990000Y-58100000D02*
X133020000Y-59130000D01*
X110830000Y-67540000D02*
X110830000Y-60930000D01*
X110830000Y-60930000D02*
X111770000Y-59990000D01*
X111770000Y-59990000D02*
X129500000Y-59990000D01*
X130480000Y-60970000D02*
X130480000Y-67420000D01*
X129500000Y-59990000D02*
X130480000Y-60970000D01*
X117620000Y-67540000D02*
X117660000Y-67500000D01*
X113370000Y-67540000D02*
X117620000Y-67540000D01*
X121199999Y-66500001D02*
X121199999Y-65260001D01*
X120200000Y-67500000D02*
X121199999Y-66500001D01*
X121199999Y-65260001D02*
X122300000Y-64160000D01*
X124680000Y-64160000D02*
X127940000Y-67420000D01*
X122300000Y-64160000D02*
X124680000Y-64160000D01*
X122740000Y-67500000D02*
X122740000Y-77350000D01*
X122740000Y-77350000D02*
X124220000Y-78830000D01*
X124220000Y-78830000D02*
X134900000Y-78830000D01*
X134900000Y-78830000D02*
X135510000Y-78220000D01*
X135510000Y-78220000D02*
X135510000Y-73870000D01*
X135510000Y-73870000D02*
X134000000Y-72360000D01*
X134000000Y-72360000D02*
X128550000Y-72360000D01*
X128550000Y-72360000D02*
X125400000Y-75510000D01*
X125400000Y-75510000D02*
X125400000Y-76690000D01*
G04 #@! TD*
M02*
