G04 #@! TF.GenerationSoftware,KiCad,Pcbnew,(5.0.2)-1*
G04 #@! TF.CreationDate,2019-04-10T16:45:38+02:00*
G04 #@! TF.ProjectId,V2,56322e6b-6963-4616-945f-706362585858,rev?*
G04 #@! TF.SameCoordinates,Original*
G04 #@! TF.FileFunction,Copper,L1,Top*
G04 #@! TF.FilePolarity,Positive*
%FSLAX46Y46*%
G04 Gerber Fmt 4.6, Leading zero omitted, Abs format (unit mm)*
G04 Created by KiCad (PCBNEW (5.0.2)-1) date 10/04/2019 16:45:38*
%MOMM*%
%LPD*%
G01*
G04 APERTURE LIST*
G04 #@! TA.AperFunction,ComponentPad*
%ADD10O,1.800000X2.199640*%
G04 #@! TD*
G04 #@! TA.AperFunction,ComponentPad*
%ADD11C,1.600000*%
G04 #@! TD*
G04 #@! TA.AperFunction,ComponentPad*
%ADD12C,2.000000*%
G04 #@! TD*
G04 #@! TA.AperFunction,ComponentPad*
%ADD13R,2.032000X1.727200*%
G04 #@! TD*
G04 #@! TA.AperFunction,ComponentPad*
%ADD14O,2.032000X1.727200*%
G04 #@! TD*
G04 #@! TA.AperFunction,ViaPad*
%ADD15C,1.000000*%
G04 #@! TD*
G04 #@! TA.AperFunction,Conductor*
%ADD16C,0.250000*%
G04 #@! TD*
G04 #@! TA.AperFunction,Conductor*
%ADD17C,1.000000*%
G04 #@! TD*
G04 APERTURE END LIST*
D10*
G04 #@! TO.P,ARDUINO,12*
G04 #@! TO.N,RX_XBEE*
X130302000Y-94132400D03*
G04 #@! TO.P,ARDUINO,11*
G04 #@! TO.N,RX_ARDUINO*
X132842000Y-94132400D03*
G04 #@! TO.P,ARDUINO,10*
G04 #@! TO.N,Net-(U2-Pad10)*
X135382000Y-94132400D03*
G04 #@! TO.P,ARDUINO,9*
G04 #@! TO.N,Net-(U2-Pad9)*
X137922000Y-94132400D03*
G04 #@! TO.P,ARDUINO,8*
G04 #@! TO.N,Net-(U2-Pad8)*
X140462000Y-94132400D03*
G04 #@! TO.P,ARDUINO,7*
G04 #@! TO.N,Net-(U2-Pad7)*
X143002000Y-94132400D03*
G04 #@! TO.P,ARDUINO,6*
G04 #@! TO.N,Net-(U2-Pad6)*
X145542000Y-94132400D03*
G04 #@! TO.P,ARDUINO,5*
G04 #@! TO.N,SENS_DATA*
X148082000Y-94132400D03*
G04 #@! TO.P,ARDUINO,4*
G04 #@! TO.N,Net-(U2-Pad4)*
X150622000Y-94132400D03*
G04 #@! TO.P,ARDUINO,3*
G04 #@! TO.N,Net-(U2-Pad3)*
X153162000Y-94132400D03*
G04 #@! TO.P,ARDUINO,2*
G04 #@! TO.N,Net-(U2-Pad2)*
X155702000Y-94132400D03*
G04 #@! TO.P,ARDUINO,1*
G04 #@! TO.N,Net-(U2-Pad1)*
X158242000Y-94132400D03*
G04 #@! TO.P,ARDUINO,24*
G04 #@! TO.N,Net-(U2-Pad24)*
X158242000Y-78892400D03*
G04 #@! TO.P,ARDUINO,23*
G04 #@! TO.N,Net-(U2-Pad23)*
X155702000Y-78892400D03*
G04 #@! TO.P,ARDUINO,22*
G04 #@! TO.N,Net-(U2-Pad22)*
X153162000Y-78892400D03*
G04 #@! TO.P,ARDUINO,21*
G04 #@! TO.N,Net-(U2-Pad21)*
X150622000Y-78892400D03*
G04 #@! TO.P,ARDUINO,20*
G04 #@! TO.N,Net-(U2-Pad20)*
X148082000Y-78892400D03*
G04 #@! TO.P,ARDUINO,19*
G04 #@! TO.N,Net-(U2-Pad19)*
X145542000Y-78892400D03*
G04 #@! TO.P,ARDUINO,18*
G04 #@! TO.N,Net-(U2-Pad18)*
X143002000Y-78892400D03*
G04 #@! TO.P,ARDUINO,17*
G04 #@! TO.N,Net-(U2-Pad17)*
X140462000Y-78892400D03*
G04 #@! TO.P,ARDUINO,16*
G04 #@! TO.N,3.7V_OUT-T*
X137922000Y-78892400D03*
G04 #@! TO.P,ARDUINO,15*
G04 #@! TO.N,Net-(U2-Pad15)*
X135382000Y-78892400D03*
G04 #@! TO.P,ARDUINO,14*
G04 #@! TO.N,GND*
X132842000Y-78892400D03*
G04 #@! TO.P,ARDUINO,13*
G04 #@! TO.N,Net-(U2-Pad13)*
X130302000Y-78892400D03*
G04 #@! TO.P,ARDUINO,25*
G04 #@! TO.N,Net-(U2-Pad25)*
X141732000Y-81432400D03*
G04 #@! TO.P,ARDUINO,26*
G04 #@! TO.N,Net-(U2-Pad26)*
X139192000Y-81432400D03*
G04 #@! TD*
D11*
G04 #@! TO.P,XBEE,1*
G04 #@! TO.N,3.7V*
X135890000Y-46228000D03*
G04 #@! TO.P,XBEE,2*
G04 #@! TO.N,TX_XBEE*
X135890000Y-48228000D03*
G04 #@! TO.P,XBEE,3*
G04 #@! TO.N,RX_XBEE*
X135890000Y-50228000D03*
G04 #@! TO.P,XBEE,4*
G04 #@! TO.N,GND*
X135890000Y-64228000D03*
G04 #@! TO.P,XBEE,5*
G04 #@! TO.N,Net-(U4-Pad5)*
X157890000Y-46228000D03*
G04 #@! TO.P,XBEE,6*
G04 #@! TO.N,Net-(U4-Pad6)*
X157890000Y-48228000D03*
G04 #@! TO.P,XBEE,7*
G04 #@! TO.N,Net-(U4-Pad7)*
X157890000Y-50228000D03*
G04 #@! TO.P,XBEE,8*
G04 #@! TO.N,PINOUT_TRANSISTOR*
X157890000Y-60228000D03*
G04 #@! TO.P,XBEE,9*
G04 #@! TO.N,Net-(U4-Pad9)*
X157890000Y-64228000D03*
G04 #@! TD*
D12*
G04 #@! TO.P,BATERIA,1*
G04 #@! TO.N,3.7V*
X113893600Y-43281600D03*
G04 #@! TO.P,BATERIA,2*
G04 #@! TO.N,GND*
X116433600Y-43281600D03*
G04 #@! TO.P,BATERIA,3*
G04 #@! TO.N,3.7V*
X118973600Y-43281600D03*
G04 #@! TO.P,BATERIA,4*
G04 #@! TO.N,GND*
X121513600Y-43281600D03*
G04 #@! TO.P,BATERIA,5*
X124053600Y-43281600D03*
G04 #@! TO.P,BATERIA,6*
G04 #@! TO.N,3.7V*
X126593600Y-43281600D03*
G04 #@! TO.P,BATERIA,7*
G04 #@! TO.N,GND*
X129133600Y-43281600D03*
G04 #@! TO.P,BATERIA,8*
G04 #@! TO.N,3.7V*
X131673600Y-43281600D03*
G04 #@! TD*
G04 #@! TO.P,2N,3*
G04 #@! TO.N,3.7V_OUT-T*
X123139200Y-66141600D03*
G04 #@! TO.P,2N,2*
G04 #@! TO.N,Net-(U10-Pad2)*
X120599200Y-66141600D03*
G04 #@! TO.P,2N,1*
G04 #@! TO.N,3.7V*
X118059200Y-66141600D03*
G04 #@! TD*
D13*
G04 #@! TO.P,DHT,1*
G04 #@! TO.N,3.7V*
X119075200Y-83159600D03*
D14*
G04 #@! TO.P,DHT,2*
G04 #@! TO.N,SENS_DATA*
X119075200Y-85699600D03*
G04 #@! TO.P,DHT,3*
G04 #@! TO.N,Net-(TH1-Pad3)*
X119075200Y-88239600D03*
G04 #@! TO.P,DHT,4*
G04 #@! TO.N,GND*
X119075200Y-90779600D03*
G04 #@! TD*
D12*
G04 #@! TO.P,R100,1*
G04 #@! TO.N,Net-(U10-Pad2)*
X128270000Y-66090800D03*
G04 #@! TO.P,R100,2*
G04 #@! TO.N,Salida_2T*
X130810000Y-66090800D03*
G04 #@! TD*
G04 #@! TO.P,R1,1*
G04 #@! TO.N,Net-(U7-Pad1)*
X128320800Y-75488800D03*
G04 #@! TO.P,R1,2*
G04 #@! TO.N,Salida_2T*
X130860800Y-75488800D03*
G04 #@! TD*
G04 #@! TO.P,R100,2*
G04 #@! TO.N,PINOUT_TRANSISTOR*
X129981600Y-57099200D03*
G04 #@! TO.P,R100,1*
G04 #@! TO.N,Net-(U5-Pad1)*
X127441600Y-57099200D03*
G04 #@! TD*
G04 #@! TO.P, R10K,1*
G04 #@! TO.N,3.7V*
X124714000Y-82956400D03*
G04 #@! TO.P, R10K,2*
G04 #@! TO.N,SENS_DATA*
X124714000Y-85496400D03*
G04 #@! TD*
G04 #@! TO.P,BC,1*
G04 #@! TO.N,Salida_2T*
X117856000Y-56946800D03*
G04 #@! TO.P,BC,2*
G04 #@! TO.N,Net-(U5-Pad1)*
X120396000Y-56946800D03*
G04 #@! TO.P,BC,3*
G04 #@! TO.N,GND*
X122936000Y-56946800D03*
G04 #@! TD*
G04 #@! TO.P,2N,1*
G04 #@! TO.N,TX_XBEE*
X123139200Y-75488800D03*
G04 #@! TO.P,2N,2*
G04 #@! TO.N,Net-(U7-Pad1)*
X120599200Y-75488800D03*
G04 #@! TO.P,2N,3*
G04 #@! TO.N,RX_ARDUINO*
X118059200Y-75488800D03*
G04 #@! TD*
D15*
G04 #@! TO.N,GND*
X130911600Y-89281000D03*
G04 #@! TO.N,TX_XBEE*
X126240802Y-63356000D03*
G04 #@! TO.N,RX_XBEE*
X153136600Y-85471000D03*
G04 #@! TD*
D16*
G04 #@! TO.N,3.7V*
X131673600Y-43281600D02*
X131094602Y-43281600D01*
D17*
X125593601Y-42281601D02*
X126593600Y-43281600D01*
X124893599Y-41581599D02*
X125593601Y-42281601D01*
X120673601Y-41581599D02*
X124893599Y-41581599D01*
X118973600Y-43281600D02*
X120673601Y-41581599D01*
X130673601Y-42281601D02*
X131673600Y-43281600D01*
X129973599Y-41581599D02*
X130673601Y-42281601D01*
X128293601Y-41581599D02*
X129973599Y-41581599D01*
X126593600Y-43281600D02*
X128293601Y-41581599D01*
X134620000Y-46228000D02*
X131673600Y-43281600D01*
X135890000Y-46228000D02*
X134620000Y-46228000D01*
X113893600Y-61976000D02*
X118059200Y-66141600D01*
X113893600Y-43281600D02*
X113893600Y-61976000D01*
X119278400Y-82956400D02*
X119075200Y-83159600D01*
X124714000Y-82956400D02*
X119278400Y-82956400D01*
X117059200Y-83159600D02*
X113766600Y-79867000D01*
X119075200Y-83159600D02*
X117059200Y-83159600D01*
X113766600Y-70434200D02*
X118059200Y-66141600D01*
X113766600Y-79867000D02*
X113766600Y-70434200D01*
X117273599Y-41581599D02*
X117973601Y-42281601D01*
X115593601Y-41581599D02*
X117273599Y-41581599D01*
X113893600Y-43281600D02*
X115593601Y-41581599D01*
X117973601Y-42281601D02*
X118973600Y-43281600D01*
D16*
G04 #@! TO.N,SENS_DATA*
X119278400Y-85496400D02*
X119075200Y-85699600D01*
X148082000Y-93932580D02*
X148082000Y-94132400D01*
D17*
X126128213Y-85496400D02*
X124714000Y-85496400D01*
X141545820Y-85496400D02*
X126128213Y-85496400D01*
X148082000Y-92032580D02*
X141545820Y-85496400D01*
X148082000Y-94132400D02*
X148082000Y-92032580D01*
X124510800Y-85699600D02*
X124714000Y-85496400D01*
X119075200Y-85699600D02*
X124510800Y-85699600D01*
G04 #@! TO.N,GND*
X129413000Y-90779600D02*
X130911600Y-89281000D01*
X119075200Y-90779600D02*
X129413000Y-90779600D01*
G04 #@! TO.N,TX_XBEE*
X131681601Y-57915201D02*
X126240802Y-63356000D01*
X131681601Y-51305029D02*
X131681601Y-57915201D01*
X135890000Y-48228000D02*
X134758630Y-48228000D01*
X134758630Y-48228000D02*
X131681601Y-51305029D01*
X126240802Y-63356000D02*
X126240802Y-63356000D01*
G04 #@! TO.N,RX_XBEE*
X135890000Y-50228000D02*
X160641590Y-74979590D01*
X160641590Y-78955385D02*
X160641590Y-74979590D01*
X154125975Y-85471000D02*
X160641590Y-78955385D01*
X153136600Y-85471000D02*
X154125975Y-85471000D01*
G04 #@! TO.N,3.7V_OUT-T*
X137922000Y-78692580D02*
X137922000Y-78892400D01*
X126371019Y-67141599D02*
X137922000Y-78692580D01*
X124139199Y-67141599D02*
X126371019Y-67141599D01*
X123139200Y-66141600D02*
X124139199Y-67141599D01*
G04 #@! TO.N,Salida_2T*
X129810001Y-65090801D02*
X130810000Y-66090800D01*
X129109999Y-64390799D02*
X129810001Y-65090801D01*
X127453999Y-64390799D02*
X129109999Y-64390799D01*
X127288797Y-64556001D02*
X127453999Y-64390799D01*
X124050988Y-64556001D02*
X127288797Y-64556001D01*
X117856000Y-58361013D02*
X124050988Y-64556001D01*
X117856000Y-56946800D02*
X117856000Y-58361013D01*
G04 #@! TO.N,Net-(U5-Pad1)*
X122096001Y-58646801D02*
X120396000Y-56946800D01*
X125893999Y-58646801D02*
X122096001Y-58646801D01*
X127441600Y-57099200D02*
X125893999Y-58646801D01*
G04 #@! TD*
M02*
